<svg width="65" height="65" viewBox="0 0 65 65" fill="none" xmlns="http://www.w3.org/2000/svg" role="img" aria-label="Wax logo">
<rect x="7" y="40.4172" width="45.6638" height="27.371" transform="rotate(-43.322 7 40.4172)" fill="#FCC457"/>
<path d="M56.8751 56.875H21.9376C20.2214 56.8721 18.5761 56.1906 17.3605 54.9792L7.80006 45.3917C7.29644 44.8887 6.89691 44.2913 6.62432 43.6337C6.35173 42.9761 6.21143 42.2713 6.21143 41.5594C6.21143 40.8476 6.35173 40.1427 6.62432 39.4852C6.89691 38.8276 7.29644 38.2302 7.80006 37.7271L34.5042 11.023C35.0073 10.5193 35.6047 10.1198 36.2623 9.84722C36.9198 9.57463 37.6247 9.43433 38.3365 9.43433C39.0484 9.43433 39.7532 9.57463 40.4108 9.84722C41.0684 10.1198 41.6658 10.5193 42.1688 11.023L57.173 26.0271C57.6766 26.5302 58.0761 27.1276 58.3487 27.7852C58.6213 28.4427 58.7616 29.1476 58.7616 29.8594C58.7616 30.5713 58.6213 31.2761 58.3487 31.9337C58.0761 32.5913 57.6766 33.1887 57.173 33.6917L36.2376 56.7667" stroke="black" stroke-width="7.6" stroke-linecap="round" stroke-linejoin="round"/>
<path d="M30.875 54.4375C33.2042 56.0625 36.075 56.875 39.4875 56.875H49.0208" stroke="black" stroke-width="7.6" stroke-linecap="round" stroke-linejoin="round"/>
<path d="M36.6978 51.052C38.404 53.002 40.4082 54.4103 42.6832 55.3041" stroke="black" stroke-width="7.6" stroke-linecap="round" stroke-linejoin="round"/>
<path d="M39.9478 56.7397C41.654 56.2793 43.0353 55.4126 44.1457 54.1938" stroke="black" stroke-width="7.6" stroke-linecap="round" stroke-linejoin="round"/>
<path d="M43.7397 54.7083C46.5293 54.7083 48.8856 53.9229 50.8356 52.3792" stroke="black" stroke-width="7.6" stroke-linecap="round" stroke-linejoin="round"/>
</svg>
